<svg class="ico" id="icon-logo-en" viewBox="0 0 1366 394.5" version="1.1" xmlns="http://www.w3.org/2000/svg"
  xmlns:xlink="http://www.w3.org/1999/xlink">
  <polygon class="st1" fill="#ea212e" points="4,389.7 4,101.7 102.3,4.6 529.1,4.6 529.1,297.9 430.7,389.7 "></polygon>
  <path class="st2" fill="#fff" d="M96.9,101.7h47.8v155.6h96.9v43.5H96.9V101.7z"></path>
  <path class="st2" fill="#fff" d="M262,101.7h47.6v73.1h73.7v-73.1h46.5v199h-46.5v-81.3h-73.7v81.3H262V101.7z"></path>
  <path class="st0" fill="#e10f21" d="M617.2,156.9h15.9V216h35.3v13.4h-51.3V156.9z"></path>
  <path class="st0" fill="#e10f21" d="M677.3,156.9h15.9v27.8h29.3v-27.8h15.9v72.5h-15.9v-31.3h-29.3v31.3h-15.9V156.9z">
  </path>
  <path class="st0" fill="#e10f21" d="M849.8,229.4h-15.8l-12.3-49.3h-0.2l-12.1,49.3h-16.1L774,156.9H790l11.5,49.3h0.2l12.6-49.3h14.9l12.4,49.9
								h0.2l11.9-49.9h15.6L849.8,229.4z"></path>
  <path class="st0" fill="#e10f21" d="M909,155.2c22.4,0,35.6,16.7,35.6,38.3c0,20.9-13.2,37.6-35.6,37.6c-22.4,0-35.6-16.7-35.6-37.6
								C873.4,171.9,886.6,155.2,909,155.2z M909,217.7c14.3,0,19.7-12.2,19.7-24.3c0-12.7-5.4-24.9-19.7-24.9
								c-14.3,0-19.7,12.2-19.7,24.9C889.3,205.5,894.7,217.7,909,217.7z"></path>
  <path class="st0" fill="#e10f21" d="M955.5,156.9h39.1c13,0,21.2,9,21.2,20c0,8.5-3.5,14.9-11.5,18.2v0.2c7.8,2,10,9.7,10.6,17
								c0.3,4.6,0.2,13.1,3.1,17.2H1002c-1.9-4.6-1.7-11.6-2.5-17.4c-1.1-7.6-4.1-11-12.1-11h-15.9v28.3h-15.9V156.9z M971.4,189.7h17.5
								c7.1,0,11-3,11-10.4c0-7-3.9-10.1-11-10.1h-17.5V189.7z"></path>
  <path class="st0" fill="#e10f21"
    d="M1028.8,156.9h15.9v30l28.3-30h19.9l-28.3,28.6l31.1,43.8h-20l-21.8-32.6l-9.1,9.2v23.3h-15.9V156.9z"></path>
  <path class="st0" fill="#e10f21" d="M1171,229.4h-15.8l-12.3-49.3h-0.2l-12.1,49.3h-16.1l-19.2-72.5h15.9l11.5,49.3h0.2l12.6-49.3h14.9l12.4,49.9
								h0.2l11.9-49.9h15.6L1171,229.4z"></path>
  <path class="st0" fill="#e10f21" d="M1197.8,156.9h54.2v13.4h-38.3v15.5h35.1v12.4h-35.1V216h39.1v13.4h-55V156.9z">
  </path>
  <path class="st0" fill="#e10f21" d="M1283.4,156.9h16.3l27.1,72.5h-16.5l-5.5-16.1h-27.1l-5.7,16.1h-16.1L1283.4,156.9z M1281.8,201.4h18.8
								l-9.1-26.6h-0.2L1281.8,201.4z"></path>
  <path class="st0" fill="#e10f21" d="M1333.1,156.9h39.1c13,0,21.2,9,21.2,20c0,8.5-3.5,14.9-11.5,18.2v0.2c7.8,2,10.1,9.7,10.6,17
								c0.3,4.6,0.2,13.1,3.1,17.2h-15.9c-1.9-4.6-1.7-11.6-2.5-17.4c-1.1-7.6-4.1-11-12.1-11H1349v28.3h-15.9V156.9z M1349,189.7h17.5
								c7.1,0,11-3,11-10.4c0-7-3.9-10.1-11-10.1H1349V189.7z"></path>
</svg>