<svg width="362" height="284" viewBox="0 0 362 284" fill="none" xmlns="http://www.w3.org/2000/svg">
<path fill-rule="evenodd" clip-rule="evenodd" d="M169.695 0.40133C157.563 1.33633 145.458 3.81732 134.695 7.57632C130.02 9.20832 125.413 10.7833 124.456 11.0753C123.5 11.3673 122.961 12.0003 123.258 12.4813C123.556 12.9623 123.101 13.0883 122.247 12.7613C121.393 12.4333 120.695 12.6633 120.695 13.2723C120.695 13.8813 120.357 14.2903 119.945 14.1813C119.533 14.0723 118.144 14.3393 116.86 14.7753C114.931 15.4303 114.641 16.0293 115.192 18.2213C115.558 19.6813 116.001 21.0193 116.177 21.1943C116.352 21.3703 118.894 20.2993 121.824 18.8143C149.411 4.83532 187.315 1.69732 218.628 10.8013C226.357 13.0483 226.851 13.0843 226.401 11.3653C225.782 8.99733 228.339 9.84533 229.746 12.4743C230.293 13.4963 231.686 14.8383 232.84 15.4563C234.331 16.2543 234.741 16.2613 234.258 15.4793C233.819 14.7693 234.682 14.3793 236.695 14.3793C239.882 14.3793 240.062 16.3203 236.887 16.4473C235.634 16.4973 235.798 16.8043 237.521 17.6333C239.357 18.5173 240.041 18.4503 240.77 17.3163C242.548 14.5493 241.139 13.0133 234.195 10.1413C215.342 2.34533 191.393 -1.27167 169.695 0.40133ZM135.695 9.82033C135.695 11.4133 133.881 12.8983 133.005 12.0223C132.182 11.2003 133.466 8.37933 134.664 8.37933C135.231 8.37933 135.695 9.02733 135.695 9.82033ZM128.195 12.3793C128.535 12.9293 128.085 13.3793 127.195 13.3793C126.305 13.3793 125.855 12.9293 126.195 12.3793C126.535 11.8293 126.985 11.3793 127.195 11.3793C127.405 11.3793 127.855 11.8293 128.195 12.3793ZM163.695 12.4033C134.073 16.5653 106.813 30.3453 85.7295 51.8133C76.9255 60.7783 82.5295 58.7003 92.4295 49.3293C124.369 19.0963 168.648 7.26333 211.115 17.6123C216.11 18.8293 220.645 19.8373 221.195 19.8523C221.745 19.8673 222.42 20.1133 222.695 20.3993C223.718 21.4643 228.972 23.4353 229.467 22.9413C231.434 20.9733 222.003 17.2893 206.195 13.8503C197.693 12.0003 172.63 11.1473 163.695 12.4033ZM245.695 16.2273C245.695 16.7323 246.595 17.3813 247.695 17.6693C248.795 17.9563 249.695 18.0253 249.695 17.8213C249.695 17.6163 248.795 16.9683 247.695 16.3793C246.59 15.7883 245.695 15.7203 245.695 16.2273ZM243.794 19.2823C242.729 19.9673 243.398 20.6973 246.578 22.3193C248.88 23.4943 251.198 24.1863 251.729 23.8583C252.26 23.5303 252.71 23.8503 252.728 24.5703C252.745 25.2903 255.558 27.7733 258.978 30.0883C262.398 32.4033 268.527 37.2413 272.6 40.8383C276.673 44.4363 280.637 47.3793 281.409 47.3793C282.181 47.3793 282.517 47.8593 282.155 48.4463C281.792 49.0323 283.271 51.6203 285.441 54.1963C287.612 56.7723 291.796 62.4793 294.738 66.8793C297.68 71.2793 300.743 75.3733 301.544 75.9773C302.345 76.5813 302.69 77.5773 302.311 78.1913C301.932 78.8043 302.538 80.2223 303.659 81.3433C304.779 82.4633 305.695 84.2373 305.695 85.2853C305.695 86.7383 306.23 87.0773 307.945 86.7113C309.972 86.2783 310.032 86.3663 308.538 87.5983C307.007 88.8613 307.083 89.5503 309.538 96.6713C312.018 103.862 312.386 104.378 315.053 104.378C317.662 104.379 317.855 104.139 317.264 101.629C315.753 95.2163 309.345 80.1843 304.57 71.8533C297.295 59.1603 290.283 50.2013 279.526 39.8543C270.665 31.3313 253.522 18.4153 255.103 21.4533C255.511 22.2373 255.15 22.0253 254.302 20.9823C252.606 18.8963 246.045 17.8343 243.794 19.2823ZM107.695 20.4383C107.695 21.0203 108.145 21.2193 108.695 20.8793C109.245 20.5393 109.695 20.0633 109.695 19.8203C109.695 19.5773 109.245 19.3793 108.695 19.3793C108.145 19.3793 107.695 19.8563 107.695 20.4383ZM113.028 21.8353C113.028 22.6363 113.411 23.0553 113.878 22.7663C114.345 22.4773 114.469 21.8223 114.152 21.3103C113.344 20.0023 113.028 20.1493 113.028 21.8353ZM99.4445 25.1423C91.0345 30.8733 83.6455 37.4893 84.3615 38.6473C84.7145 39.2203 84.5435 39.4033 83.9795 39.0553C82.5705 38.1843 70.3045 51.3593 64.0815 60.4273C55.2725 73.2663 46.2685 91.7343 44.2385 101.129C43.5765 104.197 43.6955 104.379 46.3665 104.37C48.9615 104.363 49.3555 103.845 51.1275 98.1203C53.8815 89.2263 62.6435 72.1363 68.8735 63.5083C71.8005 59.4543 74.9155 55.0553 75.7965 53.7343C78.5255 49.6373 96.4185 33.9553 103.671 29.3033C110.153 25.1453 111.861 22.9133 108.609 22.8533C107.831 22.8383 106.685 22.5063 106.061 22.1153C105.438 21.7243 102.46 23.0863 99.4445 25.1423ZM234.249 24.2943C233.938 24.7973 237.503 27.2413 242.172 29.7243C253.516 35.7593 263.632 43.5153 273.28 53.5743C280.837 61.4533 292.757 77.8503 294.174 82.3123C294.535 83.4493 295.249 84.3793 295.762 84.3793C296.275 84.3793 296.695 85.1793 296.695 86.1563C296.695 87.1343 297.273 88.8223 297.978 89.9063C298.684 90.9913 300.115 94.4903 301.158 97.6813C303.006 103.33 304.237 105.17 305.396 104.012C306.207 103.2 301.639 91.3793 300.514 91.3793C299.999 91.3793 299.845 90.9473 300.171 90.4193C300.919 89.2093 295.545 78.3983 291.079 72.1273C289.218 69.5133 287.695 67.0233 287.695 66.5943C287.695 64.9423 272.832 48.6683 266.18 43.0373C258.549 36.5763 248.683 29.9273 240.805 25.9353C235.124 23.0563 235.029 23.0323 234.249 24.2943ZM167.266 26.9503C165.117 29.1003 165.264 34.6793 167.524 36.7243C168.53 37.6343 169.687 38.3793 170.095 38.3793C170.504 38.3793 171.477 39.0183 172.258 39.7993C173.347 40.8883 173.389 41.3353 172.436 41.7203C171.73 42.0053 171.978 42.2553 173.012 42.3003C174.388 42.3603 174.675 41.8923 174.193 40.3743C173.771 39.0423 174.083 38.1673 175.126 37.7673C175.989 37.4363 176.695 36.7473 176.695 36.2373C176.695 35.7033 175.874 35.7483 174.761 36.3443C172.133 37.7503 171.109 37.6503 169.266 35.8083C167.432 33.9743 167.17 28.8213 168.858 27.7783C169.497 27.3833 171.41 26.7283 173.108 26.3223L176.195 25.5843L172.516 25.4813C170.385 25.4223 168.177 26.0403 167.266 26.9503ZM184.253 27.6023C180.86 32.4463 183.58 38.3793 189.195 38.3793C191.561 38.3793 193.051 37.7093 194.138 36.1563C197.531 31.3123 194.81 25.3793 189.195 25.3793C186.829 25.3793 185.34 26.0493 184.253 27.6023ZM192.124 27.9503C195.111 30.9383 193.11 37.3793 189.195 37.3793C187.072 37.3793 184.695 34.4743 184.695 31.8793C184.695 29.2843 187.072 26.3793 189.195 26.3793C189.941 26.3793 191.259 27.0863 192.124 27.9503ZM204.397 30.8803C206.054 34.3553 206.045 34.4043 203.194 37.3803C201.614 39.0303 200.786 40.3793 201.354 40.3793C201.922 40.3793 203.2 39.4793 204.195 38.3793C206.54 35.7883 207.136 35.8573 208.513 38.8793C209.14 40.2543 210.123 41.3793 210.699 41.3793C211.308 41.3793 211.074 40.0793 210.138 38.2703C208.573 35.2433 208.605 35.0833 211.3 32.2703C213.321 30.1603 213.646 29.3793 212.505 29.3793C211.644 29.3793 210.38 30.0543 209.695 30.8793C207.962 32.9673 207.193 32.7653 205.878 29.8793C205.251 28.5043 204.286 27.3793 203.733 27.3793C203.18 27.3793 203.479 28.9553 204.397 30.8803ZM144.695 31.3323C144.695 31.8563 145.218 33.4333 145.857 34.8363C147.566 38.5873 146.389 38.8673 141.766 35.8083C139.505 34.3113 137.375 33.3673 137.031 33.7103C136.365 34.3773 139.386 43.2513 140.811 44.8123C142.507 46.6713 142.687 44.6033 141.15 40.9243C140.285 38.8563 139.736 37.0043 139.93 36.8103C140.124 36.6173 142.259 37.7663 144.673 39.3643C147.088 40.9623 149.425 42.0463 149.87 41.7713C150.314 41.4973 149.957 39.6093 149.077 37.5763C148.197 35.5423 147.249 33.0923 146.97 32.1293C146.438 30.2963 144.695 29.6863 144.695 31.3323ZM122.277 40.4933C118.611 43.3773 119.783 44.1143 123.576 41.3103C126.097 39.4463 126.873 39.2823 128.153 40.3443C130.407 42.2153 130.126 42.7693 125.632 45.2953C121.731 47.4873 121.636 47.6563 123.286 49.4793C125.516 51.9443 129.174 51.9003 131.695 49.3793C134.083 46.9913 134.148 46.1553 132.232 42.4513C129.868 37.8783 126.455 37.2073 122.277 40.4933ZM231.057 39.8793C230.421 41.5363 230.868 42.7803 233.296 46.1173C234.809 48.1973 234.8 48.4023 233.176 49.0253C232.216 49.3933 230.597 49.1743 229.577 48.5373C226.627 46.6953 225.97 47.2583 228.556 49.4123C233.505 53.5363 238.527 49.9783 234.673 45.0783C231.103 40.5403 232.821 37.3733 236.866 41.0343C238.471 42.4863 238.695 42.4993 238.695 41.1413C238.695 38.3163 232.076 37.2233 231.057 39.8793ZM131.695 46.4593C131.695 49.0633 127.154 51.2473 125.419 49.4773C124.451 48.4903 124.808 47.7373 127.137 45.8643C130.36 43.2723 131.695 43.4463 131.695 46.4593ZM242.405 50.0383C238.711 56.1213 239.486 58.0163 243.341 52.3273C247.767 45.7943 247.959 45.3753 246.504 45.4113C245.784 45.4283 243.94 47.5103 242.405 50.0383ZM107.033 50.7663L104.257 53.1523L108.165 57.5163C110.314 59.9153 112.382 62.0103 112.76 62.1713C113.717 62.5783 118.695 56.5113 118.695 54.9373C118.695 52.5133 114.587 48.3793 112.178 48.3793C110.874 48.3793 108.559 49.4533 107.033 50.7663ZM114.611 51.7903C117.097 54.4363 117.084 57.1053 114.576 58.6843C113.301 59.4873 112.298 58.9783 109.854 56.2913L106.749 52.8793L108.833 51.1293C111.525 48.8683 111.907 48.9123 114.611 51.7903ZM251.695 50.2103C251.695 50.6673 252.82 51.6433 254.195 52.3793C255.57 53.1153 256.695 54.0043 256.695 54.3553C256.695 54.7073 253.883 55.8953 250.445 56.9963L244.195 58.9973L248.605 62.1953C253.413 65.6823 255.696 65.7413 251.276 62.2643C248.083 59.7523 248.565 59.1123 254.945 57.3963C257.558 56.6943 259.695 55.7813 259.695 55.3683C259.695 54.5793 253.241 49.3793 252.262 49.3793C251.95 49.3793 251.695 49.7533 251.695 50.2103ZM172.572 54.4573C160.583 55.4983 147.695 59.0913 147.695 61.3923C147.695 62.7643 148.169 62.6843 157.195 59.7793C168.153 56.2523 184.815 55.4203 196.718 57.8043C205.812 59.6263 217.352 64.1753 226.508 69.5483C234.421 74.1923 249.336 89.3853 254.077 97.6293C256.212 101.342 258.587 104.379 259.353 104.379C261.08 104.379 259.345 100.756 253.365 91.8793C236.052 66.1773 204.722 51.6653 172.572 54.4573ZM74.9875 64.7763C67.4215 75.0803 55.6955 98.6083 55.6955 103.485C55.6955 106.341 58.1885 103.125 60.2725 97.5803C63.8595 88.0383 71.3305 74.1543 76.8495 66.7703C80.1155 62.4023 81.4885 59.7723 80.8435 59.1273C80.1975 58.4813 78.1835 60.4243 74.9875 64.7763ZM260.234 65.4683C255.011 71.2483 256.807 71.7413 262.467 66.0813C265.534 63.0143 266.605 61.3793 265.548 61.3793C264.657 61.3793 262.265 63.2193 260.234 65.4683ZM93.6955 63.2593C93.6955 63.7423 95.7475 65.8203 98.2565 67.8763L102.817 71.6133L105.257 69.3223C106.598 68.0613 107.695 66.5803 107.695 66.0303C107.695 65.4803 106.652 66.0103 105.378 67.2073L103.061 69.3843L98.9695 65.8813C94.7485 62.2683 93.6955 61.7453 93.6955 63.2593ZM132.574 68.2343C119.362 76.9293 110.996 85.7483 103.742 98.6293C101.192 103.158 100.838 104.379 102.079 104.379C102.946 104.379 104.516 102.692 105.569 100.629C106.623 98.5673 109.657 93.9543 112.313 90.3793C114.969 86.8043 117.155 83.5413 117.169 83.1293C117.184 82.7173 117.645 82.3203 118.195 82.2473C118.745 82.1743 121.391 80.1413 124.074 77.7293C126.756 75.3173 131.594 71.7133 134.824 69.7193C138.053 67.7263 140.695 65.4843 140.695 64.7373C140.695 63.9903 140.529 63.3793 140.324 63.3793C140.12 63.3793 136.632 65.5643 132.574 68.2343ZM85.6955 67.4383C85.6955 68.0203 86.1455 68.2193 86.6955 67.8793C87.2455 67.5393 87.6955 67.0633 87.6955 66.8203C87.6955 66.5773 87.2455 66.3793 86.6955 66.3793C86.1455 66.3793 85.6955 66.8563 85.6955 67.4383ZM265.94 70.9863C263.6 72.9483 261.962 75.0013 262.301 75.5483C262.648 76.1103 264.168 75.3423 265.794 73.7843C269.335 70.3923 270.166 71.0203 268.773 76.0353C267.474 80.7143 267.42 82.3793 268.566 82.3793C270.158 82.3793 278.209 74.5923 277.435 73.8023C277.016 73.3743 275.334 74.3093 273.695 75.8793C270.131 79.2943 269.396 78.9103 270.712 74.3193C271.883 70.2353 271.98 67.3723 270.945 67.3993C270.532 67.4093 268.28 69.0243 265.94 70.9863ZM88.6955 69.2233C88.6955 70.6383 97.7155 77.6943 98.5005 76.8933C98.8825 76.5033 97.6205 74.8463 95.6955 73.2123C91.3485 69.5203 88.6955 68.0093 88.6955 69.2233ZM178.729 80.7613C177.482 85.2153 177.397 85.2833 172.829 85.5793L168.195 85.8793L171.809 88.1263C174.679 89.9113 175.361 90.9133 175.132 93.0023C174.973 94.4473 174.361 96.1143 173.77 96.7053C171.293 99.1823 172.983 99.2183 176.686 96.7673L180.675 94.1263L184.296 96.8883L187.915 99.6493L187.193 97.2643C186.795 95.9523 186.124 94.5043 185.699 94.0453C184.305 92.5383 185.781 89.7603 189.016 87.8033L192.195 85.8793L188.208 85.5543C183.5 85.1713 181.701 83.9183 181.68 81.0073C181.646 76.3483 180.003 76.2113 178.729 80.7613ZM57.6955 78.9623C57.6955 79.8333 57.1615 80.3683 56.5085 80.1503C54.6535 79.5323 54.3465 77.3793 56.1125 77.3793C56.9825 77.3793 57.6955 78.0923 57.6955 78.9623ZM277.695 83.9853C275.77 85.3643 273.562 86.8623 272.788 87.3133C271.626 87.9913 271.777 88.7763 273.652 91.8093C274.901 93.8303 276.158 95.2503 276.445 94.9633C276.731 94.6763 276.194 93.2633 275.251 91.8233C274.307 90.3843 273.685 89.0803 273.866 88.9273C274.048 88.7743 276.108 87.4573 278.445 86.0013C280.782 84.5453 282.695 82.9103 282.695 82.3663C282.695 80.8613 281.526 81.2403 277.695 83.9853ZM75.0075 88.8503C73.2905 92.4523 73.2945 92.6133 75.1565 93.9743C77.8635 95.9533 78.3625 95.7723 79.5455 92.3793C80.6945 89.0843 82.7385 88.5203 84.7495 90.9453C85.8275 92.2433 85.7535 93.0113 84.3155 95.4453C82.4365 98.6253 83.1445 99.4743 85.3035 96.6293C87.3025 93.9963 87.0165 89.6213 84.7675 88.4183C82.2025 87.0453 80.2225 87.9273 78.7835 91.0863C77.9065 93.0103 77.3085 93.3923 76.4745 92.5583C75.6415 91.7253 75.6635 90.7453 76.5605 88.7773C77.2255 87.3163 77.5475 85.8983 77.2755 85.6263C77.0035 85.3543 75.9835 86.8053 75.0075 88.8503ZM215.585 87.1293C215.481 87.8173 215.351 88.9423 215.296 89.6293C215.148 91.4833 213.552 92.3473 210.245 92.3643C206.941 92.3813 207.504 93.3773 212.195 95.8103C214.144 96.8213 214.582 97.3693 213.445 97.3733C212.482 97.3763 211.695 97.7923 211.695 98.2973C211.695 98.8023 211.392 100.008 211.02 100.977C210.382 102.641 210.478 102.645 212.742 101.059C215.569 99.0793 219.304 98.8603 220.073 100.629C220.372 101.317 220.36 100.641 220.047 99.1273C219.612 97.0273 220.036 95.9113 221.836 94.4113L224.195 92.4463L221.397 92.4123C219.211 92.3863 218.289 91.6683 217.186 89.1293C216.409 87.3423 215.689 86.4423 215.585 87.1293ZM143.695 88.8083C143.695 91.1823 140.906 93.2423 138.464 92.6713C136.331 92.1723 136.364 92.3043 139.028 94.8773C141.061 96.8413 141.555 97.9193 140.778 98.6963C140.182 99.2923 139.695 100.434 139.695 101.234C139.695 102.371 140.149 102.278 141.772 100.81C143.738 99.0303 144.003 99.0193 146.772 100.608C150.05 102.49 150.065 102.479 148.74 98.9953C147.924 96.8493 148.18 96.1863 150.49 94.4623L153.195 92.4423L149.964 92.4113C147.364 92.3853 146.611 91.8913 146.106 89.8793C145.435 87.2063 143.695 86.4323 143.695 88.8083ZM184.695 90.3793C184.695 92.4883 183.24 93.0703 182.195 91.3793C181.466 90.1993 182.413 88.3793 183.755 88.3793C184.273 88.3793 184.695 89.2793 184.695 90.3793ZM312.695 90.9973C312.695 91.8223 312.245 92.2193 311.695 91.8793C311.145 91.5393 310.695 90.5863 310.695 89.7613C310.695 88.9363 311.145 88.5393 311.695 88.8793C312.245 89.2193 312.695 90.1723 312.695 90.9973ZM49.3785 94.5673C49.0595 95.3643 48.8225 95.1273 48.7745 93.9623C48.7315 92.9083 48.9675 92.3183 49.2995 92.6503C49.6315 92.9823 49.6675 93.8453 49.3785 94.5673ZM289.12 98.2973C291.002 100.375 290.928 104.481 288.999 105.116C288.341 105.333 286.869 103.68 285.728 101.444C283.326 96.7363 282.348 96.4533 280.138 99.8263C277.767 103.444 279.985 107.761 284.435 108.191C288.682 108.602 293.167 104.479 292.135 101.112C291.276 98.3103 289.759 96.3793 288.418 96.3793C287.85 96.3793 288.166 97.2423 289.12 98.2973ZM285.254 102.494C287.197 106.25 286.012 108.154 282.802 106.436C279.946 104.908 279.972 99.3793 282.836 99.3793C283.28 99.3793 284.368 100.781 285.254 102.494ZM69.1945 102.381C68.9165 102.831 68.9785 103.952 69.3315 104.873C69.7925 106.075 70.1825 106.208 70.7155 105.346C71.8045 103.584 78.6955 106.011 78.6955 108.157C78.6955 110.641 80.4525 108.347 81.2055 104.879C81.6815 102.689 81.5815 102.273 80.8375 103.339C79.9465 104.615 79.1765 104.595 74.7585 103.182C71.9755 102.292 69.4715 101.932 69.1945 102.381ZM216.695 115.879C216.695 119.212 216.862 119.379 220.195 119.379C223.528 119.379 223.695 119.212 223.695 115.879C223.695 112.546 223.528 112.379 220.195 112.379C216.862 112.379 216.695 112.546 216.695 115.879ZM101.195 122.799C96.2265 125.022 95.2975 127.663 94.8665 140.79C94.2665 159.075 96.9065 164.379 106.607 164.379C116.109 164.379 118.695 159.78 118.695 142.879C118.695 128.947 117.428 125.001 112.263 122.843C107.981 121.054 105.122 121.043 101.195 122.799ZM256.01 122.79C250.457 125.297 249.503 128.677 249.871 144.557L250.195 158.548L253.586 161.576C256.66 164.32 257.478 164.562 262.322 164.16C271.548 163.395 273.685 159.487 273.685 143.379C273.685 132.247 272.601 127.578 269.296 124.473C266.299 121.657 260.224 120.888 256.01 122.79ZM0.162493 124.629C0.440493 125.867 2.04249 134.529 3.72449 143.879C7.65049 165.71 7.16549 164.379 11.1955 164.379C13.5365 164.379 14.7175 163.847 15.0775 162.629C15.8045 160.167 22.6955 124.711 22.6955 123.432C22.6955 122.853 21.1565 122.379 19.2745 122.379C15.4165 122.379 15.8505 121.316 13.1485 137.368C12.2695 142.587 11.4135 146.995 11.2445 147.163C10.9675 147.441 9.74249 139.743 8.05849 127.129C7.42449 122.387 7.4175 122.379 3.54049 122.379C0.0304949 122.379 -0.294507 122.595 0.162493 124.629ZM26.6955 143.379V164.379H35.2615H43.8285L43.5115 161.629C43.2285 159.168 42.7485 158.847 38.9455 158.572L34.6955 158.264V151.822V145.379H37.6955C40.3625 145.379 40.6955 145.046 40.6955 142.379C40.6955 139.712 40.3625 139.379 37.6955 139.379C34.7295 139.379 34.6955 139.317 34.6955 133.936V128.494L38.9455 128.186C42.7485 127.911 43.2285 127.59 43.5115 125.129L43.8285 122.379H35.2615H26.6955V143.379ZM46.6955 143.379V164.379H50.6955H54.6955V156.813C54.6955 152.652 55.2205 148.266 55.8625 147.067C56.9145 145.101 57.3405 145.822 60.1915 154.383L63.3525 163.879L67.5015 164.185L71.6495 164.492L68.0665 154.685C66.0955 149.292 64.0535 143.687 63.5275 142.231C62.7295 140.021 63.2435 138.245 66.6335 131.503C68.8675 127.059 70.6955 123.188 70.6955 122.901C70.6955 122.614 68.7425 122.379 66.3545 122.379H62.0135L59.1745 129.431C57.6135 133.31 55.9665 136.712 55.5155 136.99C55.0645 137.269 54.6955 134.095 54.6955 129.938V122.379H50.6955H46.6955V143.379ZM71.6955 125.379C71.6955 128.046 72.0285 128.379 74.6955 128.379H77.6955V146.379V164.379H81.6955H85.6955V146.379V128.379H88.6955C91.3625 128.379 91.6955 128.046 91.6955 125.379V122.379H81.6955H71.6955V125.379ZM123.695 143.379V164.379H127.695H131.695V154.796C131.695 143.807 133.219 142.451 135.455 151.447C138.927 165.418 138.334 164.379 142.841 164.379C145.802 164.379 146.771 164.019 146.402 163.058C146.123 162.331 144.719 158.015 143.283 153.467L140.671 145.197L143.184 142.211C145.162 139.86 145.695 138.12 145.695 134.025C145.695 130.976 145.062 127.921 144.166 126.64C142.266 123.928 136.953 122.392 129.445 122.385L123.695 122.379V143.379ZM159.882 140.463L160.195 158.548L163.462 161.463C167.603 165.161 174.912 165.569 179.026 162.334C182.805 159.36 183.683 154.711 183.689 137.629L183.695 122.379H179.695H175.695V138.445C175.695 147.607 175.25 155.342 174.66 156.445C173.412 158.777 169.152 159.013 168.302 156.797C167.968 155.927 167.695 147.827 167.695 138.797V122.379H163.632H159.569L159.882 140.463ZM188.695 143.316V164.379H192.163H195.632L195.913 152.679L196.195 140.979L200.733 152.429C204.841 162.794 205.528 163.909 207.983 164.195L210.695 164.512V143.445V122.379H207.695H204.695V133.079C204.695 139.952 204.35 143.434 203.73 142.814C203.199 142.283 200.981 137.581 198.801 132.364C195.111 123.534 194.625 122.857 191.766 122.566L188.695 122.252V143.316ZM216.695 143.379V164.379H220.695H224.695V143.379V122.379H220.695H216.695V143.379ZM229.695 143.379V164.379H233.695H237.695V154.879V145.379H241.195C244.417 145.379 244.695 145.141 244.695 142.379C244.695 139.617 244.417 139.379 241.195 139.379H237.695V133.879V128.379H242.195C246.528 128.379 246.695 128.268 246.695 125.379V122.379H238.195H229.695V143.379ZM278.695 143.379V164.379H282.695H286.695V154.879C286.695 149.654 287.104 145.379 287.603 145.379C288.101 145.379 289.539 149.654 290.798 154.879L293.09 164.379H297.327H301.564L298.195 154.379C295.032 144.985 294.936 144.32 296.624 143.417C300.954 141.1 301.89 130.462 298.13 126.307C295.913 123.857 290.612 122.392 283.945 122.385L278.695 122.379V143.379ZM304.695 143.379V164.379H307.695H310.695L310.775 150.129C310.818 142.291 311.061 136.385 311.315 137.003C311.57 137.621 312.796 143.921 314.04 151.003L316.303 163.879L319.307 164.178L322.312 164.477L324.16 152.678C326.952 134.846 327.514 134.43 327.609 150.129L327.695 164.379H330.695H333.695V143.379V122.379H328.831H323.967L323.326 127.129C322.974 129.742 321.94 135.929 321.031 140.879C319.109 151.349 318.799 150.889 316.151 133.629L314.426 122.379H309.56H304.695V143.379ZM343.254 135.078C341.734 142.119 339.682 151.592 338.693 156.129L336.893 164.379H340.775C344.195 164.379 344.731 164.052 345.27 161.629C346.6 155.651 346.793 155.379 349.702 155.379C352.339 155.379 352.628 155.747 353.247 159.879C353.917 164.344 353.953 164.379 357.896 164.379H361.871L361.224 160.629C360.867 158.567 358.904 149.229 356.861 139.879L353.146 122.879L349.581 122.578L346.017 122.277L343.254 135.078ZM109.152 128.979C111.595 131.422 110.987 156.166 108.445 157.767C107.17 158.569 106.22 158.569 104.945 157.767C102.403 156.166 101.795 131.422 104.238 128.979C105.118 128.099 106.224 127.379 106.695 127.379C107.166 127.379 108.272 128.099 109.152 128.979ZM264.138 129.602C265.325 131.296 265.695 134.519 265.695 143.167C265.695 154.977 264.838 158.379 261.861 158.379C258.252 158.379 257.695 156.359 257.695 143.25C257.695 133.012 258.003 130.214 259.267 128.95C261.374 126.844 262.293 126.967 264.138 129.602ZM137.52 132.267C138.05 137.821 136.995 140.379 134.176 140.379C131.807 140.379 131.695 140.104 131.695 134.313C131.695 128.285 131.712 128.248 134.445 128.563C136.763 128.829 137.247 129.411 137.52 132.267ZM291.495 129.579C294.284 132.368 292.182 140.379 288.66 140.379C286.925 140.379 286.695 139.677 286.695 134.379C286.695 129.268 286.962 128.379 288.495 128.379C289.485 128.379 290.835 128.919 291.495 129.579ZM351.182 144.129C351.876 150.247 351.842 150.379 349.507 150.379H347.12L348.079 142.811C349.149 134.371 350.122 134.785 351.182 144.129ZM44.1265 182.129C47.8725 198.03 65.4875 229.136 75.5345 237.59C77.0305 238.849 78.3495 240.221 78.4665 240.639C78.8725 242.099 91.9085 253.379 93.1895 253.379C93.9005 253.379 94.7295 254.025 95.0325 254.814C95.3345 255.603 96.5075 256.743 97.6395 257.349C99.5245 258.358 99.6955 258.17 99.6955 255.1C99.6955 252.28 98.9655 251.208 95.0745 248.315C92.5325 246.425 90.0575 244.992 89.5745 245.129C89.0905 245.267 88.8075 244.827 88.9455 244.153C89.0825 243.478 88.2045 242.775 86.9925 242.589C85.7775 242.403 84.4945 241.272 84.1305 240.066C83.1505 236.818 78.6155 232.381 76.2585 232.364C74.8115 232.353 74.5785 232.105 75.4775 231.535C76.4335 230.929 75.7405 229.441 72.7605 225.698C70.5615 222.936 66.7855 217.47 64.3695 213.553C61.9545 209.635 59.6175 206.756 59.1765 207.154C58.7355 207.553 58.6695 207.363 59.0305 206.732C59.3915 206.101 58.3705 202.726 56.7625 199.232C50.3215 185.239 50.0325 184.487 49.8105 181.129C49.7275 179.862 48.8365 179.379 46.5875 179.379C43.7055 179.379 43.5265 179.58 44.1265 182.129ZM56.1225 181.999C57.3905 187.153 65.0305 203.714 67.0895 205.773C68.1935 206.877 69.1495 208.507 69.2155 209.397C69.4045 211.967 78.7545 224.46 79.9405 223.728C80.5265 223.365 80.7155 223.538 80.3595 224.113C79.3625 225.727 91.9445 238.682 101.403 245.781C116.912 257.421 135.725 265.827 155.695 270.041C166.061 272.228 193.911 272.518 203.195 270.535C215.572 267.891 227.15 264.16 236.24 259.884C247.74 254.474 259.939 246.582 259.043 245.133C258.675 244.537 258.856 244.361 259.456 244.731C262.423 246.565 281.939 226.408 291.007 212.144C297.237 202.342 305.695 183.989 305.695 180.273C305.695 177.467 303.221 180.585 301.215 185.919C285.125 228.692 247.243 260.15 202.47 267.918C197.387 268.8 192.729 269.936 192.12 270.442C191.51 270.948 190.725 271.076 190.376 270.727C190.027 270.378 184.426 269.959 177.929 269.797C135.439 268.737 97.4015 247.535 73.1125 211.372C69.2315 205.593 65.7795 199.968 65.4425 198.872C63.5455 192.706 57.7245 179.889 56.6595 179.534C55.7545 179.232 55.6075 179.908 56.1225 181.999ZM102.625 183.129C105.938 189.433 108.417 192.639 109.11 191.517C110.013 190.055 103.829 179.379 102.079 179.379C100.943 179.379 101.054 180.139 102.625 183.129ZM254.077 186.128C249.762 193.629 235.827 208.299 228.531 213.02C225.391 215.052 224.121 216.451 224.647 217.301C225.204 218.203 226.069 217.663 227.674 215.408C228.978 213.577 230.5 212.474 231.299 212.78C233.237 213.524 243.408 204.785 249.393 197.233C256.132 188.729 261.385 179.379 259.422 179.379C258.617 179.379 256.212 182.416 254.077 186.128ZM310.223 185.638C309.137 189.07 308.374 192.288 308.525 192.787C308.677 193.287 308.403 193.962 307.918 194.287C307.432 194.613 304.659 199.445 301.755 205.026C298.851 210.607 293.641 218.949 290.177 223.564C283.504 232.456 263.938 251.85 260.559 252.923C259.282 253.328 258.763 254.113 259.134 255.081C259.532 256.119 259.26 256.426 258.275 256.048C257.482 255.744 253.325 257.494 249.038 259.937C244.751 262.38 240.865 264.379 240.402 264.379C239.939 264.379 239.825 265.391 240.148 266.629C240.637 268.504 240.545 268.619 239.589 267.316C238.569 265.926 237.446 266.127 229.473 269.121C210.619 276.203 200.485 277.918 178.195 277.799C155.254 277.676 137.661 273.248 116.992 262.396C106.582 256.931 105.743 256.655 105.158 258.499C104.65 260.098 104.247 260.252 103.087 259.289C102.295 258.632 101.384 258.357 101.062 258.679C100.054 259.687 111.736 266.59 122.932 271.601C149.141 283.333 180.882 286.726 209.738 280.882C218.28 279.152 221.127 277.887 220.125 276.266C219.824 275.778 220.016 275.379 220.553 275.379C221.089 275.379 221.718 275.942 221.948 276.629C222.268 277.583 223.648 277.435 227.781 276.004C236.989 272.814 251.682 265.579 252.318 263.921C252.651 263.053 253.498 262.464 254.201 262.611C256.885 263.174 269.66 253.465 280.792 242.403C293.537 229.736 302.888 216.708 309.56 202.323C314.487 191.699 315.403 188.848 313.552 189.901C312.806 190.326 313.207 189.689 314.445 188.487C315.683 187.285 316.702 185.756 316.71 185.09C316.717 184.424 316.995 182.867 317.326 181.629C317.849 179.678 317.549 179.38 315.062 179.388C312.425 179.395 312.038 179.897 310.223 185.638ZM142.699 185.129C141.509 188.354 140.832 188.777 137.424 188.428C135.992 188.281 136.153 188.746 138.262 190.855C140.395 192.988 140.647 193.733 139.641 194.945C138.965 195.76 138.67 196.687 138.988 197.005C139.884 197.901 143.779 194.808 142.939 193.868C142.53 193.41 143.876 194.286 145.931 195.815L149.666 198.594L148.524 195.318C147.461 192.27 147.584 191.878 150.288 189.715L153.195 187.389L149.528 187.384C146.435 187.38 145.708 186.949 144.88 184.629L143.897 181.879L142.699 185.129ZM215.695 184.179C215.695 186.675 213.743 188.379 210.884 188.379H208.473L210.74 190.214C212.756 191.847 212.884 192.402 211.891 195.248C210.715 198.623 211.286 198.708 214.82 195.685C215.714 194.921 216.839 194.368 217.32 194.456C219.422 194.84 220.695 194.277 220.695 192.962C220.695 192.183 221.933 190.623 223.445 189.494L226.195 187.442L222.465 187.411C219.332 187.384 218.634 186.979 218.107 184.879C217.384 181.999 215.695 181.509 215.695 184.179ZM178.608 187.411C177.246 191.717 177.038 191.89 172.837 192.192L168.477 192.505L171.837 194.983C174.464 196.922 175.122 198.051 174.859 200.17C174.674 201.66 174.112 203.307 173.609 203.829C171.34 206.187 173.054 206.17 176.637 203.798L180.58 201.189L184.309 204.033L188.037 206.877L187.292 203.878C186.882 202.229 186.178 200.745 185.727 200.581C184.023 199.962 185.943 196.748 189.444 194.36L193.08 191.879L188.24 191.379C183.4 190.879 182.878 190.452 180.96 185.411C180.063 183.052 179.959 183.141 178.608 187.411ZM109.695 194.021C109.695 195.259 118.871 205.39 123.219 208.952C131.303 215.576 129.621 211.468 120.527 202.373C112.388 194.234 109.695 192.158 109.695 194.021ZM184.695 197.379C184.695 199.488 183.24 200.07 182.195 198.379C181.466 197.199 182.413 195.379 183.755 195.379C184.273 195.379 184.695 196.279 184.695 197.379ZM129.217 212.343C127.497 215.126 157.404 228.913 160.718 226.865C161.255 226.533 161.695 226.766 161.695 227.383C161.695 228 162.482 228.375 163.445 228.217C164.408 228.058 165.767 228.287 166.465 228.725C167.164 229.163 173.24 229.519 179.965 229.516C194.863 229.51 201.308 228.26 215.445 222.639C221.416 220.265 222.433 219.45 221.095 218.113C220.262 217.28 215.695 219.473 215.695 220.706C215.695 221.26 215.44 221.457 215.128 221.145C214.816 220.833 212.005 221.476 208.882 222.574C199.224 225.968 188.877 227.497 177.195 227.257C171.145 227.132 165.745 226.743 165.195 226.393C164.645 226.042 161.72 225.154 158.695 224.42C151.523 222.679 142.507 218.826 135.926 214.69C130.049 210.997 130.049 210.997 129.217 212.343ZM108.663 219.912C104.227 224.403 103.422 225.722 104.283 227.087C104.863 228.007 105.981 228.972 106.766 229.232C107.99 229.636 107.996 229.463 106.807 228.023C105.609 226.572 105.666 226.068 107.225 224.346C108.454 222.988 109.693 222.561 111.105 223.009C112.858 223.566 112.988 223.436 111.941 222.175C110.932 220.959 111.069 220.351 112.68 218.893C114.313 217.415 114.927 217.326 116.201 218.383C118.721 220.474 118.886 218.906 116.393 216.564L114.098 214.409L108.663 219.912ZM244.883 216.429C242.424 218.419 242.826 220.583 246.172 223.36C247.509 224.469 247.975 224.38 249.137 222.791C250.487 220.944 250.557 220.944 252.605 222.797C253.754 223.838 254.695 225.528 254.695 226.553C254.695 228.062 254.171 228.305 251.945 227.83C249.346 227.275 249.299 227.327 251.083 228.772C252.461 229.888 253.475 230.032 254.833 229.305C257.272 228 257.193 225.282 254.622 222.014C252.273 219.027 250.509 218.693 248.686 220.89C247.575 222.228 247.281 222.199 246.117 220.64C244.992 219.132 245.102 218.648 246.885 217.272C248.03 216.388 248.567 215.417 248.077 215.114C247.587 214.812 246.15 215.403 244.883 216.429ZM124.005 226.629C123.56 227.317 123.195 230.354 123.195 233.379C123.195 237.601 122.847 238.879 121.695 238.879C120.816 238.879 120.183 237.951 120.167 236.637C120.134 234.063 118.362 233.476 117.863 235.874C116.981 240.121 124.187 242.336 125.199 238.129C125.496 236.891 125.616 234.096 125.467 231.918C125.254 228.815 125.574 227.878 126.945 227.594C128.165 227.342 128.695 227.86 128.695 229.306C128.695 230.446 129.145 231.379 129.695 231.379C131.088 231.379 130.948 228.032 129.495 226.579C127.933 225.017 125.031 225.043 124.005 226.629ZM229.591 228.005C228.433 229.4 228.676 230.43 231.299 235.255C233.936 240.104 234.759 240.879 237.276 240.879C240.903 240.879 241.59 238.041 239.135 233.197C235.715 226.447 232.386 224.637 229.591 228.005ZM236.637 232.772C238.851 236.825 238.95 241.273 236.797 239.942C234.977 238.818 230.547 230.21 231.077 228.829C231.943 226.57 234.076 228.082 236.637 232.772ZM139.695 233.344C139.695 233.822 140.258 234.407 140.945 234.646C141.834 234.954 141.266 236.988 138.975 241.688C137.204 245.323 136.148 248.541 136.63 248.839C137.112 249.137 138.898 246.406 140.598 242.772C142.941 237.767 144.075 236.311 145.276 236.772C146.202 237.127 146.709 236.922 146.496 236.281C146.036 234.901 139.695 232.163 139.695 233.344ZM214.266 235.95C212.372 237.845 212.364 237.029 214.337 242.951C216.317 248.896 217.387 250.379 219.695 250.379C223.265 250.379 224.016 247.87 222.155 242.165C219.54 234.151 217.597 232.62 214.266 235.95ZM219.331 240.051C221.377 244.947 221.582 248.879 219.79 248.879C218.287 248.879 214.349 238.747 215.272 237.254C216.374 235.471 217.839 236.48 219.331 240.051ZM154.19 245.129C153.198 248.841 152.205 252.384 151.983 253.001C151.54 254.232 156.287 255.473 158.374 254.672C159.68 254.171 162.695 245.536 162.695 242.295C162.695 240.976 158.385 238.379 156.194 238.379C156.083 238.379 155.181 241.417 154.19 245.129ZM197.266 240.95C195.568 242.648 195.144 245.379 196.578 245.379C197.064 245.379 197.709 244.432 198.012 243.274C198.654 240.819 201.035 241.213 201.548 243.86C201.741 244.858 200.877 247.857 199.628 250.524C198.379 253.191 197.611 255.629 197.923 255.941C198.809 256.826 205.695 255.273 205.695 254.188C205.695 253.633 204.416 253.501 202.695 253.879C199.177 254.652 199.001 253.947 201.695 249.879C204.258 246.01 204.287 241.766 201.761 240.414C199.259 239.075 199.126 239.091 197.266 240.95ZM160.062 244.483C159.854 249.783 158.056 253.379 155.613 253.379C154.17 253.379 153.659 252.914 154.033 251.942C154.336 251.151 155.106 248.563 155.742 246.192C157.175 240.848 157.58 240.169 159.037 240.68C159.674 240.904 160.135 242.615 160.062 244.483ZM273.695 247.438C273.695 247.956 273.245 248.379 272.695 248.379C272.145 248.379 271.695 247.677 271.695 246.82C271.695 245.963 272.145 245.539 272.695 245.879C273.245 246.219 273.695 246.92 273.695 247.438ZM171.695 256.379C171.695 256.929 172.145 257.379 172.695 257.379C173.245 257.379 173.695 256.929 173.695 256.379C173.695 255.829 173.245 255.379 172.695 255.379C172.145 255.379 171.695 255.829 171.695 256.379Z" fill="#D0262E"/>
</svg>
