<svg width="726" height="265" viewBox="0 0 726 265" fill="none" xmlns="http://www.w3.org/2000/svg">
<path d="M0 265V49.8597L51.7785 0H726V219.729L674.222 265H0Z" fill="#EA212E"/>
<path d="M131.32 91.2L88.12 192H60.04L16.984 91.2H47.8L75.16 156.864L103.096 91.2H131.32ZM230.389 169.968V192H149.461V91.2H228.517V113.232H177.685V130.224H222.469V151.536H177.685V169.968H230.389ZM297.331 155.424L286.675 166.8V192H258.451V91.2H286.675V133.104L325.699 91.2H357.091L315.907 135.84L359.251 192H326.131L297.331 155.424ZM392.975 113.808H362.015V91.2H452.303V113.808H421.487V192H392.975V113.808ZM524.591 194.016C513.935 194.016 504.335 191.76 495.791 187.248C487.343 182.736 480.671 176.496 475.775 168.528C470.975 160.56 468.575 151.584 468.575 141.6C468.575 131.616 470.975 122.64 475.775 114.672C480.671 106.704 487.343 100.464 495.791 95.952C504.335 91.44 513.935 89.184 524.591 89.184C535.247 89.184 544.799 91.44 553.247 95.952C561.791 100.464 568.463 106.704 573.263 114.672C578.159 122.64 580.607 131.616 580.607 141.6C580.607 151.584 578.159 160.56 573.263 168.528C568.463 176.496 561.791 182.736 553.247 187.248C544.799 191.76 535.247 194.016 524.591 194.016ZM524.591 170.4C529.679 170.4 534.287 169.2 538.415 166.8C542.543 164.4 545.807 161.04 548.207 156.72C550.607 152.304 551.807 147.264 551.807 141.6C551.807 135.936 550.607 130.944 548.207 126.624C545.807 122.208 542.543 118.8 538.415 116.4C534.287 114 529.679 112.8 524.591 112.8C519.503 112.8 514.895 114 510.767 116.4C506.639 118.8 503.375 122.208 500.975 126.624C498.575 130.944 497.375 135.936 497.375 141.6C497.375 147.264 498.575 152.304 500.975 156.72C503.375 161.04 506.639 164.4 510.767 166.8C514.895 169.2 519.503 170.4 524.591 170.4ZM651.844 165.216H636.292V192H607.78V91.2H653.86C662.98 91.2 670.9 92.736 677.62 95.808C684.34 98.784 689.524 103.104 693.172 108.768C696.82 114.336 698.644 120.912 698.644 128.496C698.644 135.792 696.916 142.176 693.46 147.648C690.1 153.024 685.252 157.248 678.916 160.32L700.66 192H670.132L651.844 165.216ZM669.844 128.496C669.844 123.792 668.356 120.144 665.38 117.552C662.404 114.96 657.988 113.664 652.132 113.664H636.292V143.184H652.132C657.988 143.184 662.404 141.936 665.38 139.44C668.356 136.848 669.844 133.2 669.844 128.496Z" fill="white"/>
</svg>
