<svg width="797" height="300" viewBox="0 0 797 300" fill="none" xmlns="http://www.w3.org/2000/svg">
<path d="M0 300V56.445L56.8422 0H797V248.75L740.158 300H0Z" fill="#EA212E"/>
<path d="M147.8 96L99.8 208H68.6L20.76 96H55L85.4 168.96L116.44 96H147.8ZM255.476 183.52V208H165.556V96H253.396V120.48H196.916V139.36H246.676V163.04H196.916V183.52H255.476ZM327.456 167.36L315.616 180V208H284.256V96H315.616V142.56L358.976 96H393.856L348.096 145.6L396.256 208H359.456L327.456 167.36ZM431.328 121.12H396.928V96H497.248V121.12H463.008V208H431.328V121.12ZM575.167 210.24C563.327 210.24 552.661 207.733 543.167 202.72C533.781 197.707 526.367 190.773 520.927 181.92C515.594 173.067 512.927 163.093 512.927 152C512.927 140.907 515.594 130.933 520.927 122.08C526.367 113.227 533.781 106.293 543.167 101.28C552.661 96.2667 563.327 93.76 575.167 93.76C587.007 93.76 597.621 96.2667 607.007 101.28C616.501 106.293 623.914 113.227 629.247 122.08C634.687 130.933 637.407 140.907 637.407 152C637.407 163.093 634.687 173.067 629.247 181.92C623.914 190.773 616.501 197.707 607.007 202.72C597.621 207.733 587.007 210.24 575.167 210.24ZM575.167 184C580.821 184 585.941 182.667 590.527 180C595.114 177.333 598.741 173.6 601.407 168.8C604.074 163.893 605.407 158.293 605.407 152C605.407 145.707 604.074 140.16 601.407 135.36C598.741 130.453 595.114 126.667 590.527 124C585.941 121.333 580.821 120 575.167 120C569.514 120 564.394 121.333 559.807 124C555.221 126.667 551.594 130.453 548.927 135.36C546.261 140.16 544.927 145.707 544.927 152C544.927 158.293 546.261 163.893 548.927 168.8C551.594 173.6 555.221 177.333 559.807 180C564.394 182.667 569.514 184 575.167 184ZM714.16 178.24H696.88V208H665.2V96H716.4C726.533 96 735.333 97.7067 742.8 101.12C750.267 104.427 756.027 109.227 760.08 115.52C764.133 121.707 766.16 129.013 766.16 137.44C766.16 145.547 764.24 152.64 760.4 158.72C756.667 164.693 751.28 169.387 744.24 172.8L768.4 208H734.48L714.16 178.24ZM734.16 137.44C734.16 132.213 732.507 128.16 729.2 125.28C725.893 122.4 720.987 120.96 714.48 120.96H696.88V153.76H714.48C720.987 153.76 725.893 152.373 729.2 149.6C732.507 146.72 734.16 142.667 734.16 137.44Z" fill="white"/>
</svg>
