<svg width="76" height="50" viewBox="0 0 76 50" fill="none" xmlns="http://www.w3.org/2000/svg">
<rect x="34" y="7.15295" width="8.94118" height="42.0235" fill="#EA212E"/>
<path d="M0 28.6118V5.3833L5.42033 0H76V23.7239L70.5797 28.6118H0Z" fill="#EA212E"/>
<path d="M18.3012 10.753L14.7012 19.153H12.3612L8.77316 10.753H11.3412L13.6212 16.225L15.9492 10.753H18.3012ZM26.3769 17.317V19.153H19.6329V10.753H26.2209V12.589H21.9849V14.005H25.7169V15.781H21.9849V17.317H26.3769ZM31.7754 16.105L30.8874 17.053V19.153H28.5354V10.753H30.8874V14.245L34.1394 10.753H36.7554L33.3234 14.473L36.9354 19.153H34.1754L31.7754 16.105ZM39.5657 12.637H36.9857V10.753H44.5097V12.637H41.9417V19.153H39.5657V12.637ZM50.3537 19.321C49.4657 19.321 48.6657 19.133 47.9537 18.757C47.2497 18.381 46.6937 17.861 46.2857 17.197C45.8857 16.533 45.6857 15.785 45.6857 14.953C45.6857 14.121 45.8857 13.373 46.2857 12.709C46.6937 12.045 47.2497 11.525 47.9537 11.149C48.6657 10.773 49.4657 10.585 50.3537 10.585C51.2417 10.585 52.0377 10.773 52.7417 11.149C53.4537 11.525 54.0097 12.045 54.4097 12.709C54.8177 13.373 55.0217 14.121 55.0217 14.953C55.0217 15.785 54.8177 16.533 54.4097 17.197C54.0097 17.861 53.4537 18.381 52.7417 18.757C52.0377 19.133 51.2417 19.321 50.3537 19.321ZM50.3537 17.353C50.7777 17.353 51.1617 17.253 51.5057 17.053C51.8497 16.853 52.1217 16.573 52.3217 16.213C52.5217 15.845 52.6217 15.425 52.6217 14.953C52.6217 14.481 52.5217 14.065 52.3217 13.705C52.1217 13.337 51.8497 13.053 51.5057 12.853C51.1617 12.653 50.7777 12.553 50.3537 12.553C49.9297 12.553 49.5457 12.653 49.2017 12.853C48.8577 13.053 48.5857 13.337 48.3857 13.705C48.1857 14.065 48.0857 14.481 48.0857 14.953C48.0857 15.425 48.1857 15.845 48.3857 16.213C48.5857 16.573 48.8577 16.853 49.2017 17.053C49.5457 17.253 49.9297 17.353 50.3537 17.353ZM60.7782 16.921H59.4822V19.153H57.1062V10.753H60.9462C61.7062 10.753 62.3662 10.881 62.9262 11.137C63.4862 11.385 63.9182 11.745 64.2222 12.217C64.5262 12.681 64.6782 13.229 64.6782 13.861C64.6782 14.469 64.5342 15.001 64.2462 15.457C63.9662 15.905 63.5622 16.257 63.0342 16.513L64.8462 19.153H62.3022L60.7782 16.921ZM62.2782 13.861C62.2782 13.469 62.1542 13.165 61.9062 12.949C61.6582 12.733 61.2902 12.625 60.8022 12.625H59.4822V15.085H60.8022C61.2902 15.085 61.6582 14.981 61.9062 14.773C62.1542 14.557 62.2782 14.253 62.2782 13.861Z" fill="white"/>
</svg>
